# xmcd
#
# Track frame offsets:
#	150
#	11487
#	24989
#	38750
#	49407
#	62899
#	80060
#	94211
#	109789
#	123657
#	140130
#	154466
#	180502
#	190351
#	203263
#	227890
#
# Disc length: 3044 seconds
#
# Revision: 0
# Processed by: cddbd v1.5.2PL0 Copyright (c) Steve Scherf et al.
# Submitted via: audiograbber 1.83.01
#
DISCID=e00be210
DTITLE=Various Artist - ask1518 party songs volume 2
DYEAR=2005
DGENRE=karaoke cd+G
TTITLE0=aretha franklin - respect
TTITLE1=beach boys - help me, rhonda
TTITLE2=ben e king - stand by me
TTITLE3=bill haley and  his comets - rock around the clock
TTITLE4=Billy Joel - It's still rock and roll to me
TTITLE5=Donna summer - Hot stuff
TTITLE6=Foundations - Build me up buttercup
TTITLE7=frank sinatra - new york new york
TTITLE8=James brown - I got you (I feel Good)
TTITLE9=Kenny rogers - The Gambler
TTITLE10=Monkees - Daydream beliver
TTITLE11=pointer sisters - i'm so excited
TTITLE12=Richie Valens - La Bamba
TTITLE13=The beach boys - Califorina girls
TTITLE14=tokens - the lion sleeps tonight
TTITLE15=data only - Data Track
EXTD=
EXTT0=
EXTT1=
EXTT2=
EXTT3=
EXTT4=
EXTT5=
EXTT6=
EXTT7=
EXTT8=
EXTT9=
EXTT10=
EXTT11=
EXTT12=
EXTT13=
EXTT14=
EXTT15=
PLAYORDER=
